<svg xmlns="http://www.w3.org/2000/svg" viewBox="0 0 120 140">
  <defs>
    <linearGradient id="bodyGrad" x1="0" y1="0" x2="1" y2="1">
      <stop offset="0%" stop-color="#c7a1ff"/>
      <stop offset="100%" stop-color="#7752ff"/>
    </linearGradient>
    <linearGradient id="hatGrad" x1="0" y1="0" x2="1" y2="1">
      <stop offset="0%" stop-color="#6f3dff"/>
      <stop offset="100%" stop-color="#a97dff"/>
    </linearGradient>
    <linearGradient id="orbGrad" x1="0" y1="0" x2="1" y2="1">
      <stop offset="0%" stop-color="#f8e5ff"/>
      <stop offset="100%" stop-color="#b184ff"/>
    </linearGradient>
  </defs>
  <circle cx="60" cy="40" r="26" fill="url(#orbGrad)"/>
  <path d="M30 40 C30 10, 90 10, 90 40 L90 72 C90 110, 30 110, 30 72 Z" fill="url(#bodyGrad)"/>
  <path d="M32 36 Q60 0, 88 36 L84 46 Q60 26, 36 46 Z" fill="url(#hatGrad)"/>
  <circle cx="47" cy="38" r="5" fill="#4a2472"/>
  <circle cx="73" cy="38" r="5" fill="#4a2472"/>
  <path d="M52 52 C52 58, 68 58, 68 52" stroke="#4a2472" stroke-width="3" fill="none" stroke-linecap="round"/>
  <rect x="58" y="20" width="8" height="8" rx="4" fill="#fff" opacity="0.85"/>
  <path d="M58 16 L64 16 L64 8" stroke="#f2d3ff" stroke-width="3" stroke-linecap="round"/>
</svg>
